<svg width="24" height="24" viewBox="0 0 24 24" fill="none" xmlns="http://www.w3.org/2000/svg">
<path d="M7.99961 8.45465H2" stroke="currentColor" stroke-width="2" stroke-miterlimit="10"/>
<path d="M5.97575 11.9797L2.02539 12.0199" stroke="currentColor" stroke-width="2" stroke-miterlimit="10"/>
<path d="M13.4857 17.093H9.88867" stroke="currentColor" stroke-width="2" stroke-miterlimit="10"/>
<path d="M3.88854 17.0931H1.88867" stroke="currentColor" stroke-width="2" stroke-miterlimit="10"/>
<path d="M9.88842 17.0947C9.88842 18.1982 8.99187 19.0934 7.88854 19.0934C6.78522 19.0934 5.88867 18.1982 5.88867 17.0947C5.88867 15.9911 6.78368 15.0944 7.88854 15.0944C8.99341 15.0944 9.88842 15.9896 9.88842 17.0947Z" stroke="currentColor" stroke-width="2" stroke-miterlimit="10"/>
<path d="M17.8869 17.093C17.8869 18.0916 17.1539 18.9189 16.1956 19.067C16.1941 19.0686 16.1925 19.0686 16.191 19.0686C16.1092 19.0809 16.0243 19.0887 15.9395 19.0902C15.9225 19.0917 15.904 19.0917 15.887 19.0917C14.7837 19.0917 13.8887 18.1966 13.8887 17.093C13.8887 15.9895 14.7837 15.0928 15.887 15.0928C16.9903 15.0928 17.8869 15.988 17.8869 17.093Z" stroke="currentColor" stroke-width="2" stroke-miterlimit="10"/>
<path d="M2.99805 17.0931L5.88829 17.0947" stroke="currentColor" stroke-width="2" stroke-miterlimit="10"/>
<path d="M2.04102 5.02832L15.8873 5.03758V15.0404" stroke="currentColor" stroke-width="2" stroke-miterlimit="10"/>
<path d="M15.8887 15.525V15.7735V8.22778H18.8885L20.9701 11.8872L20.9979 17.0406L17.8885 17.0931" stroke="currentColor" stroke-width="2" stroke-miterlimit="10"/>
</svg>
