<svg
  width="24"
  height="24"
  viewBox="0 0 24 24"
  fill="none"
  xmlns="http://www.w3.org/2000/svg">
  <g clipPath="url(#clip0_312_7693)">
    <path
      d="M12 24C18.6274 24 24 18.6274 24 12C24 5.37258 18.6274 0 12 0C5.37258 0 0 5.37258 0 12C0 18.6274 5.37258 24 12 24Z"
      fill="#0052B4"
    />
    <path
      d="M11.9993 4.69568L12.3878 5.89141H13.645L12.6279 6.6304L13.0164 7.82613L11.9993 7.0871L10.9821 7.82613L11.3707 6.6304L10.3535 5.89141H11.6107L11.9993 4.69568Z"
      fill="#FFDA44"
    />
    <path
      d="M6.83377 6.83503L7.95408 7.40578L8.84306 6.51685L8.64633 7.75856L9.76659 8.32936L8.52483 8.52605L8.32814 9.76786L7.75734 8.6476L6.51562 8.84433L7.40461 7.95535L6.83377 6.83503Z"
      fill="#FFDA44"
    />
    <path
      d="M4.69531 12L5.89105 11.6115V10.3542L6.62998 11.3714L7.82577 10.9829L7.08669 12L7.82577 13.0172L6.62998 12.6287L5.89105 13.6458V12.3886L4.69531 12Z"
      fill="#FFDA44"
    />
    <path
      d="M6.83377 17.165L7.40456 16.0446L6.51562 15.1557L7.75739 15.3524L8.32809 14.2322L8.52483 15.4739L9.76655 15.6706L8.64642 16.2414L8.84306 17.4831L7.95408 16.5942L6.83377 17.165Z"
      fill="#FFDA44"
    />
    <path
      d="M11.9993 19.3043L11.6107 18.1086H10.3535L11.3707 17.3696L10.9821 16.174L11.9993 16.9129L13.0164 16.174L12.6279 17.3696L13.645 18.1086H12.3878L11.9993 19.3043Z"
      fill="#FFDA44"
    />
    <path
      d="M17.1652 17.165L16.0449 16.5942L15.1559 17.4832L15.3526 16.2414L14.2324 15.6706L15.4741 15.4739L15.6708 14.2322L16.2416 15.3524L17.4833 15.1557L16.5943 16.0447L17.1652 17.165Z"
      fill="#FFDA44"
    />
    <path
      d="M19.3042 12L18.1085 12.3886V13.6458L17.3695 12.6286L16.1738 13.0172L16.9128 12L16.1738 10.9829L17.3695 11.3714L18.1085 10.3542V11.6115L19.3042 12Z"
      fill="#FFDA44"
    />
    <path
      d="M17.1652 6.83511L16.5944 7.95542L17.4833 8.84441L16.2415 8.64762L15.6708 9.76789L15.4741 8.52612L14.2324 8.32939L15.3526 7.75864L15.1559 6.51697L16.0449 7.40591L17.1652 6.83511Z"
      fill="#FFDA44"
    />
  </g>
  <defs>
    <clipPath id="clip0_312_7693">
      <rect width="24" height="24" fill="white" />
    </clipPath>
  </defs>
</svg>